<svg width="48" height="48" viewBox="0 0 48 48" fill="none" xmlns="http://www.w3.org/2000/svg">
  <path d="M10.7944 20.3837C12.0684 15.5508 15.8994 11.7589 20.7415 10.5201C29.4069 8.3029 37.2571 14.0559 38.5172 22.0027C38.6768 23.0098 39.1259 23.9484 39.847 24.6695L45.384 30.2065C46.0234 30.8459 47.1155 30.5373 47.328 29.6589C48.3886 25.2745 48.2466 20.421 46.5213 15.4629C44.1829 8.74241 38.7887 3.50238 32.022 1.30135C12.6496 -5.00132 -4.98904 12.6263 1.29281 31.997C3.48459 38.7554 8.70669 44.1483 15.411 46.5003C20.3497 48.2326 25.1835 48.3894 29.5552 47.3519C30.4366 47.1428 30.7477 46.0475 30.1072 45.407L24.1559 39.4557C23.4951 38.795 22.6473 38.3604 21.7304 38.1796C14.0193 36.6616 8.54795 28.9045 10.7944 20.3837Z" fill="white" />
  <path d="M38.5878 31.5711C37.9269 33.1684 36.9484 34.6149 35.7117 35.8227C34.475 37.0305 33.0059 37.9745 31.3934 38.5975C30.3828 38.987 30.1 40.2806 30.8659 41.0463L37.2181 47.3984C37.6026 47.7829 38.1241 47.999 38.6679 47.999H46.2697C46.696 47.9989 47.1048 47.8296 47.4062 47.5281C47.7077 47.2267 47.877 46.8179 47.8771 46.3916V38.7898C47.8771 38.5205 47.8241 38.2539 47.721 38.0051C47.618 37.7564 47.4669 37.5303 47.2765 37.34L41.0204 31.0838C40.2678 30.3318 38.9937 30.5874 38.5878 31.5711Z" fill="white" />
  <path d="M31.5914 24.2445C31.5914 28.1669 28.4119 31.3464 24.4895 31.3464C20.5672 31.3464 17.3876 28.1669 17.3876 24.2445C17.3876 20.3221 20.5672 17.1426 24.4895 17.1426C28.4119 17.1426 31.5914 20.3221 31.5914 24.2445Z" fill="white" />
</svg>